TITLE ""
FILE "2Q_t_0335-0352.mp3" MP3
  TRACK 01 AUDIO
    TITLE "2Q_t_0335-0352_01"
    INDEX 01 00:00:00
  TRACK 02 AUDIO
    TITLE "2Q_t_0335-0352_02"
    INDEX 01 00:00:16
  TRACK 03 AUDIO
    TITLE "2Q_t_0335-0352_03"
    INDEX 01 00:01:22
  TRACK 04 AUDIO
    TITLE "2Q_t_0335-0352_04"
    INDEX 01 00:01:70
  TRACK 05 AUDIO
    TITLE "2Q_t_0335-0352_05"
    INDEX 01 00:05:27
  TRACK 06 AUDIO
    TITLE "2Q_t_0335-0352_06"
    INDEX 01 00:05:72
  TRACK 07 AUDIO
    TITLE "2Q_t_0335-0352_07"
    INDEX 01 00:07:36
  TRACK 08 AUDIO
    TITLE "2Q_t_0335-0352_08"
    INDEX 01 00:08:12
  TRACK 09 AUDIO
    TITLE "2Q_t_0335-0352_09"
    INDEX 01 00:10:67
  TRACK 10 AUDIO
    TITLE "2Q_t_0335-0352_10"
    INDEX 01 00:11:36
  TRACK 11 AUDIO
    TITLE "2Q_t_0335-0352_11"
    INDEX 01 00:12:51
  TRACK 12 AUDIO
    TITLE "2Q_t_0335-0352_12"
    INDEX 01 00:13:25
  TRACK 13 AUDIO
    TITLE "2Q_t_0335-0352_13"
    INDEX 01 00:15:22
  TRACK 14 AUDIO
    TITLE "2Q_t_0335-0352_14"
    INDEX 01 00:15:67
  TRACK 15 AUDIO
    TITLE "2Q_t_0335-0352_15"
    INDEX 01 00:16:64
  TRACK 16 AUDIO
    TITLE "2Q_t_0335-0352_16"
    INDEX 01 00:17:36
  TRACK 17 AUDIO
    TITLE "2Q_t_0335-0352_17"
    INDEX 01 00:19:64
  TRACK 18 AUDIO
    TITLE "2Q_t_0335-0352_18"
    INDEX 01 00:20:33
  TRACK 19 AUDIO
    TITLE "2Q_t_0335-0352_19"
    INDEX 01 00:21:40
  TRACK 20 AUDIO
    TITLE "2Q_t_0335-0352_20"
    INDEX 01 00:22:14
  TRACK 21 AUDIO
    TITLE "2Q_t_0335-0352_21"
    INDEX 01 00:24:50
  TRACK 22 AUDIO
    TITLE "2Q_t_0335-0352_22"
    INDEX 01 00:25:20
  TRACK 23 AUDIO
    TITLE "2Q_t_0335-0352_23"
    INDEX 01 00:26:37
  TRACK 24 AUDIO
    TITLE "2Q_t_0335-0352_24"
    INDEX 01 00:27:07
  TRACK 25 AUDIO
    TITLE "2Q_t_0335-0352_25"
    INDEX 01 00:29:53
  TRACK 26 AUDIO
    TITLE "2Q_t_0335-0352_26"
    INDEX 01 00:30:21
  TRACK 27 AUDIO
    TITLE "2Q_t_0335-0352_27"
    INDEX 01 00:31:48
  TRACK 28 AUDIO
    TITLE "2Q_t_0335-0352_28"
    INDEX 01 00:32:22
  TRACK 29 AUDIO
    TITLE "2Q_t_0335-0352_29"
    INDEX 01 00:35:71
  TRACK 30 AUDIO
    TITLE "2Q_t_0335-0352_30"
    INDEX 01 00:36:39
  TRACK 31 AUDIO
    TITLE "2Q_t_0335-0352_31"
    INDEX 01 00:37:64
  TRACK 32 AUDIO
    TITLE "2Q_t_0335-0352_32"
    INDEX 01 00:38:42
  TRACK 33 AUDIO
    TITLE "2Q_t_0335-0352_33"
    INDEX 01 00:40:27
  TRACK 34 AUDIO
    TITLE "2Q_t_0335-0352_34"
    INDEX 01 00:40:73
  TRACK 35 AUDIO
    TITLE "2Q_t_0335-0352_35"
    INDEX 01 00:42:28
  TRACK 36 AUDIO
    TITLE "2Q_t_0335-0352_36"
    INDEX 01 00:43:10
  TRACK 37 AUDIO
    TITLE "2Q_t_0335-0352_37"
    INDEX 01 00:45:33
  TRACK 38 AUDIO
    TITLE "2Q_t_0335-0352_38"
    INDEX 01 00:46:03
  TRACK 39 AUDIO
    TITLE "2Q_t_0335-0352_39"
    INDEX 01 00:47:31
  TRACK 40 AUDIO
    TITLE "2Q_t_0335-0352_40"
    INDEX 01 00:48:03
  TRACK 41 AUDIO
    TITLE "2Q_t_0335-0352_41"
    INDEX 01 00:50:02
  TRACK 42 AUDIO
    TITLE "2Q_t_0335-0352_42"
    INDEX 01 00:50:47
  TRACK 43 AUDIO
    TITLE "2Q_t_0335-0352_43"
    INDEX 01 00:51:66
  TRACK 44 AUDIO
    TITLE "2Q_t_0335-0352_44"
    INDEX 01 00:52:42
  TRACK 45 AUDIO
    TITLE "2Q_t_0335-0352_45"
    INDEX 01 00:54:69
  TRACK 46 AUDIO
    TITLE "2Q_t_0335-0352_46"
    INDEX 01 00:55:41
  TRACK 47 AUDIO
    TITLE "2Q_t_0335-0352_47"
    INDEX 01 00:56:36
  TRACK 48 AUDIO
    TITLE "2Q_t_0335-0352_48"
    INDEX 01 00:57:18
  TRACK 49 AUDIO
    TITLE "2Q_t_0335-0352_49"
    INDEX 01 01:00:20
  TRACK 50 AUDIO
    TITLE "2Q_t_0335-0352_50"
    INDEX 01 01:00:65
  TRACK 51 AUDIO
    TITLE "2Q_t_0335-0352_51"
    INDEX 01 01:02:15
  TRACK 52 AUDIO
    TITLE "2Q_t_0335-0352_52"
    INDEX 01 01:02:64
  TRACK 53 AUDIO
    TITLE "2Q_t_0335-0352_53"
    INDEX 01 01:04:18
  TRACK 54 AUDIO
    TITLE "2Q_t_0335-0352_54"
    INDEX 01 01:04:63
  TRACK 55 AUDIO
    TITLE "2Q_t_0335-0352_55"
    INDEX 01 01:06:37
  TRACK 56 AUDIO
    TITLE "2Q_t_0335-0352_56"
    INDEX 01 01:07:05
  TRACK 57 AUDIO
    TITLE "2Q_t_0335-0352_57"
    INDEX 01 01:10:03
  TRACK 58 AUDIO
    TITLE "2Q_t_0335-0352_58"
    INDEX 01 01:10:46
  TRACK 59 AUDIO
    TITLE "2Q_t_0335-0352_59"
    INDEX 01 01:11:48
  TRACK 60 AUDIO
    TITLE "2Q_t_0335-0352_60"
    INDEX 01 01:12:24
  TRACK 61 AUDIO
    TITLE "2Q_t_0335-0352_61"
    INDEX 01 01:13:35
  TRACK 62 AUDIO
    TITLE "2Q_t_0335-0352_62"
    INDEX 01 01:14:07
  TRACK 63 AUDIO
    TITLE "2Q_t_0335-0352_63"
    INDEX 01 01:15:24
  TRACK 64 AUDIO
    TITLE "2Q_t_0335-0352_64"
    INDEX 01 01:15:69
  TRACK 65 AUDIO
    TITLE "2Q_t_0335-0352_65"
    INDEX 01 01:20:49
  TRACK 66 AUDIO
    TITLE "2Q_t_0335-0352_66"
    INDEX 01 01:21:21
  TRACK 67 AUDIO
    TITLE "2Q_t_0335-0352_67"
    INDEX 01 01:22:57
  TRACK 68 AUDIO
    TITLE "2Q_t_0335-0352_68"
    INDEX 01 01:23:37
  TRACK 69 AUDIO
    TITLE "2Q_t_0335-0352_69"
    INDEX 01 01:24:38
  TRACK 70 AUDIO
    TITLE "2Q_t_0335-0352_70"
    INDEX 01 01:25:09
  TRACK 71 AUDIO
    TITLE "2Q_t_0335-0352_71"
    INDEX 01 01:26:10
  TRACK 72 AUDIO
    TITLE "2Q_t_0335-0352_72"
    INDEX 01 01:26:65
  TRACK 73 AUDIO
    TITLE "2Q_t_0335-0352_73"
    INDEX 01 01:27:68
